# xmcd
#
# Track frame offsets:
#	150
#	13412
#	26365
#	41980
#	57770
#	72015
#	87504
#	102525
#	116387
#	131257
#	143795
#	160427
#	175100
#	190440
#
# Disc length: 2725 seconds
#
# Revision: 2
# Processed by: cddbd v1.5.2PL0 Copyright (c) Steve Scherf et al.
# Submitted via: audiograbber 1.83.01
#
DISCID=c30aa30e
DTITLE=Various Artist - Hot Country Hits Volume 35
DYEAR=1900
DGENRE=Country
TTITLE0=Dwight Yoakam - Pocket Of A Clown
TTITLE1=John Michael Montgomery - Be My Baby Tonight
TTITLE2=Shenandoah - I'll Go Down Loving You
TTITLE3=McBride and The Ride - Been There
TTITLE4=Randy Travis - Whisper My Name
TTITLE5=Lari White - That's My Baby
TTITLE6=John Berry - What's In It For Me
TTITLE7=Vince Gill - What The Cowgirls Do
TTITLE8=Rick Trevino - She Can't Say I Didn't Cry
TTITLE9=Orral and Wright - She Loves Me Like She Means It
TTITLE10=Rodney Crowell - Big Heart
TTITLE11=Clay Walker - Dreaming With My Eyes Open
TTITLE12=George Straight - The Man In Love With You
TTITLE13=Little Texas - Stop On A Dime
EXTD=
EXTT0=
EXTT1=
EXTT2=
EXTT3=
EXTT4=
EXTT5=
EXTT6=
EXTT7=
EXTT8=
EXTT9=
EXTT10=
EXTT11=
EXTT12=
EXTT13=
PLAYORDER=
